<?xml version="1.0" encoding="UTF-8" standalone="no"?>
<!DOCTYPE svg PUBLIC "-//W3C//DTD SVG 1.1//EN" "http://www.w3.org/Graphics/SVG/1.1/DTD/svg11.dtd">
<svg xmlns="http://www.w3.org/2000/svg" version="1.1" viewBox="0.00 0.00 1378.00 1048.00">
<g stroke-width="2.00" fill="none" stroke-linecap="butt">
<path stroke="#6c3206" vector-effect="non-scaling-stroke" d="
  M 839.32 6.46
  C 819.08 13.20 802.36 28.68 779.57 24.83"
/>
<path stroke="#882210" vector-effect="non-scaling-stroke" d="
  M 846.33 162.02
  Q 840.91 191.67 832.96 220.81
  Q 832.68 221.85 832.25 222.63"
/>
<path stroke="#7c200d" vector-effect="non-scaling-stroke" d="
  M 832.25 222.63
  Q 830.28 232.56 826.92 241.81"
/>
<path stroke="#b08760" vector-effect="non-scaling-stroke" d="
  M 826.92 241.81
  L 823.42 245.68"
/>
<path stroke="#b07b4b" vector-effect="non-scaling-stroke" d="
  M 823.42 245.68
  C 820.53 249.12 805.84 267.62 800.58 261.12
  Q 797.17 256.90 792.70 246.39"
/>
<path stroke="#b08760" vector-effect="non-scaling-stroke" d="
  M 792.70 246.39
  Q 792.96 245.62 791.55 242.50"
/>
<path stroke="#882210" vector-effect="non-scaling-stroke" d="
  M 791.55 242.50
  Q 791.97 241.62 793.14 242.39
  Q 793.52 242.64 793.66 242.21
  C 803.26 213.21 806.51 186.85 807.50 158.50
  Q 807.58 156.26 807.22 154.06"
/>
<path stroke="#d7816d" vector-effect="non-scaling-stroke" d="
  M 791.55 242.50
  C 776.99 198.76 756.22 162.79 719.45 134.77
  C 663.71 92.29 588.50 65.34 517.87 74.05
  C 480.06 78.72 446.62 94.27 418.39 119.72
  C 279.86 244.65 273.45 450.14 320.25 616.96"
/>
<path stroke="#c73324" vector-effect="non-scaling-stroke" d="
  M 320.25 616.96
  L 311.10 621.54"
/>
<path stroke="#c72346" vector-effect="non-scaling-stroke" d="
  M 304.47 596.89
  C 306.99 581.84 306.25 569.97 295.62 558.43"
/>
<path stroke="#ffdaa8" vector-effect="non-scaling-stroke" d="
  M 792.70 246.39
  Q 793.40 261.71 793.25 276.15
  Q 793.12 288.19 791.27 295.68
  C 788.06 308.69 781.20 322.26 770.50 330.74
  C 762.75 336.89 755.35 341.82 746.08 347.14
  C 694.08 376.96 644.04 403.20 606.03 448.00
  C 574.47 485.20 549.98 542.11 569.99 590.91
  C 576.44 606.64 583.30 616.40 591.58 628.49
  Q 591.87 628.91 592.32 629.16
  Q 593.28 629.70 593.00 630.85
  Q 592.88 631.34 593.22 631.72
  C 594.78 633.44 601.91 640.45 602.27 642.00
  Q 602.38 642.46 602.69 642.83
  C 606.97 648.05 611.59 653.15 615.52 658.64
  Q 616.65 660.23 618.61 661.78"
/>
<path stroke="#fdac77" vector-effect="non-scaling-stroke" d="
  M 618.61 661.78
  L 608.02 668.60
  Q 607.51 668.93 607.41 668.32
  C 605.84 658.43 603.94 641.79 593.18 638.07
  C 584.19 634.97 573.20 638.68 568.41 647.26
  Q 566.78 650.19 566.18 656.08
  C 560.68 710.73 560.50 765.93 561.26 820.81
  C 561.30 823.93 562.60 847.94 561.97 848.74"
/>
<path stroke="#d7816d" vector-effect="non-scaling-stroke" d="
  M 561.97 848.74
  C 531.93 859.09 500.17 861.68 469.32 852.67"
/>
<path stroke="#fd8ba2" vector-effect="non-scaling-stroke" d="
  M 469.32 852.67
  L 468.75 827.55
  Q 468.73 827.03 469.24 826.93
  Q 475.96 825.47 482.65 824.04
  C 515.37 817.01 531.58 790.30 536.67 759.33
  C 541.19 731.77 548.42 654.18 501.06 655.61
  C 488.88 655.98 480.72 662.34 471.04 668.59
  Q 470.54 668.91 470.43 668.32
  C 468.68 658.55 467.51 643.16 456.82 638.41
  C 446.61 633.88 430.67 640.82 429.47 652.75
  C 423.82 708.81 423.74 764.89 423.99 821.34"
/>
<path stroke="#d7816d" vector-effect="non-scaling-stroke" d="
  M 423.99 821.34
  Q 412.08 808.75 401.91 794.97"
/>
<path stroke="#ef9874" vector-effect="non-scaling-stroke" d="
  M 401.91 794.97
  Q 401.25 790.81 401.25 789.19
  C 401.36 755.81 401.88 722.45 397.84 689.24
  C 395.02 666.11 387.08 629.96 364.72 617.32
  C 351.48 609.84 334.31 612.10 320.25 616.96"
/>
<path stroke="#a41a1a" vector-effect="non-scaling-stroke" d="
  M 1134.72 185.32
  L 1135.03 185.98
  Q 1135.29 186.51 1134.73 186.71
  Q 1133.12 187.28 1131.82 185.89
  Q 1131.47 185.51 1130.99 185.33
  Q 1124.86 182.93 1118.66 180.76
  C 1114.59 179.33 1110.45 176.17 1106.93 175.07
  C 1082.48 167.43 1064.74 162.54 1044.50 160.49
  Q 1015.20 157.53 985.87 159.53
  C 964.75 160.98 942.70 164.36 923.07 170.31
  C 914.07 173.04 901.11 176.10 890.49 181.28
  Q 871.13 190.72 854.02 203.78
  C 852.10 205.24 850.91 207.38 849.01 208.72
  Q 840.29 214.86 833.58 223.13
  Q 833.27 223.52 832.85 223.26
  Q 832.55 223.07 832.25 222.63"
/>
<path stroke="#c9244f" vector-effect="non-scaling-stroke" d="
  M 1075.88 853.08
  Q 1073.08 845.22 1066.62 842.91
  C 1050.09 837.01 1037.92 846.90 1033.75 862.25
  Q 1030.76 873.25 1029.86 886.50"
/>
<path stroke="#c9244f" vector-effect="non-scaling-stroke" d="
  M 999.44 904.72
  Q 999.93 885.28 999.71 878.57
  C 999.23 863.65 996.34 849.27 978.87 847.15"
/>
<path stroke="#cc7f6a" vector-effect="non-scaling-stroke" d="
  M 978.87 847.15
  Q 1013.51 813.16 1043.47 774.96
  C 1103.74 698.10 1152.93 609.78 1181.80 516.27
  C 1206.66 435.72 1219.33 325.15 1152.21 259.41
  C 1095.04 203.42 1020.25 170.16 939.24 178.49
  C 892.20 183.32 856.87 206.57 826.92 241.81"
/>
<path stroke="#fd8ba2" vector-effect="non-scaling-stroke" d="
  M 978.87 847.15
  C 959.20 844.62 952.03 858.66 948.02 874.73"
/>
<path stroke="#cc7f6a" vector-effect="non-scaling-stroke" d="
  M 948.02 874.73
  L 924.55 892.88"
/>
<path stroke="#ef9874" vector-effect="non-scaling-stroke" d="
  M 924.55 892.88
  Q 924.09 871.07 922.08 849.58
  C 920.64 834.25 916.92 818.36 898.15 819.10
  C 881.79 819.75 876.19 832.83 876.20 847.01
  Q 876.22 881.44 878.65 920.39"
/>
<path stroke="#cc7f6a" vector-effect="non-scaling-stroke" d="
  M 878.65 920.39
  C 839.85 939.38 798.58 944.63 759.87 921.90
  C 714.29 895.13 687.10 842.43 676.60 792.49"
/>
<path stroke="#ffdaa8" vector-effect="non-scaling-stroke" d="
  M 676.60 792.49
  Q 677.98 791.66 677.60 790.47
  Q 677.43 789.96 677.70 789.49
  Q 678.52 788.02 678.52 786.91"
/>
<path stroke="#facd91" vector-effect="non-scaling-stroke" d="
  M 678.52 786.91
  Q 682.51 771.06 689.81 757.02
  Q 689.89 756.88 690.91 754.37
  Q 691.46 753.03 692.48 751.93
  Q 692.82 751.56 692.93 751.07
  Q 693.36 749.13 694.82 748.69"
/>
<path stroke="#fa937c" vector-effect="non-scaling-stroke" d="
  M 694.82 748.69
  C 695.24 770.65 698.39 828.15 718.30 841.68
  C 729.34 849.18 743.59 843.23 746.93 830.78
  C 748.38 825.38 747.58 816.58 747.31 811.00
  C 745.59 775.55 742.94 743.77 745.61 705.20"
/>
<path stroke="#facd91" vector-effect="non-scaling-stroke" d="
  M 745.61 705.20
  L 767.09 696.18"
/>
<path stroke="#ef8896" vector-effect="non-scaling-stroke" d="
  M 767.09 696.18
  C 759.26 738.90 756.48 836.67 819.75 843.55
  C 837.36 845.47 858.08 839.67 869.94 825.94
  C 878.75 815.75 881.56 793.88 862.47 792.44
  Q 858.15 792.12 854.81 793.54
  C 840.44 799.63 825.74 807.21 816.95 788.48
  Q 812.41 778.82 811.18 767.95
  Q 811.12 767.42 811.65 767.51
  Q 819.29 768.83 821.51 768.97
  C 845.17 770.52 860.74 755.23 867.59 733.83
  C 876.70 705.33 875.11 669.70 855.88 645.32"
/>
<path stroke="#facd91" vector-effect="non-scaling-stroke" d="
  M 855.88 645.32
  C 864.59 635.07 869.91 619.51 872.56 606.51
  C 883.14 554.61 872.69 503.29 852.47 454.97
  C 841.51 428.77 828.92 403.40 816.70 377.77
  C 809.79 363.26 803.19 346.53 801.98 330.59
  Q 800.26 307.80 807.29 286.07
  C 810.55 276.01 816.86 263.55 821.61 252.34
  C 821.79 251.92 821.74 251.19 821.76 250.73"
/>
<path stroke="#ffdaa8" vector-effect="non-scaling-stroke" d="
  M 821.76 250.73
  C 824.30 249.42 823.32 247.78 823.42 245.68"
/>
<path stroke="#fac17c" vector-effect="non-scaling-stroke" d="
  M 821.76 250.73
  L 821.76 250.31
  Q 821.76 249.88 821.37 250.06
  L 820.82 250.33
  A 0.99 0.93 -2.6 0 0 820.34 250.82
  Q 819.38 253.00 818.18 255.03
  C 814.56 261.14 812.09 268.60 808.53 277.47
  Q 799.19 300.76 797.57 325.07
  C 796.20 345.61 805.26 368.54 813.50 387.50
  C 828.53 422.05 841.28 452.18 849.75 486.71
  Q 862.60 539.04 853.10 591.75
  C 850.38 606.85 845.14 619.31 838.12 632.84"
/>
<path stroke="#ef7c81" vector-effect="non-scaling-stroke" d="
  M 838.12 632.84
  C 816.21 626.62 795.96 636.39 783.65 654.19
  Q 774.96 666.74 770.97 681.29"
/>
<path stroke="#fac17c" vector-effect="non-scaling-stroke" d="
  M 770.97 681.29
  Q 758.44 686.54 746.18 692.90"
/>
<path stroke="#fa8767" vector-effect="non-scaling-stroke" d="
  M 746.18 692.90
  C 746.94 676.53 750.43 629.30 733.25 622.98
  C 697.04 609.68 694.50 664.95 694.24 686.00
  Q 694.05 700.82 694.28 737.44"
/>
<path stroke="#fac17c" vector-effect="non-scaling-stroke" d="
  M 694.28 737.44
  Q 692.59 740.61 691.47 743.90
  C 690.51 746.76 688.51 749.01 687.52 752.01
  Q 685.19 759.11 683.18 766.27
  C 682.50 768.72 680.60 770.88 680.92 773.91
  Q 681.00 774.64 680.45 775.69
  Q 677.91 780.64 678.52 786.91"
/>
<path stroke="#cc7355" vector-effect="non-scaling-stroke" d="
  M 676.60 792.49
  Q 674.16 782.55 673.92 772.16
  A 0.52 0.51 68.2 0 0 673.06 771.79
  Q 672.64 772.17 672.67 772.54"
/>
<path stroke="#d77558" vector-effect="non-scaling-stroke" d="
  M 672.67 772.54
  L 669.83 775.56"
/>
<path stroke="#fda062" vector-effect="non-scaling-stroke" d="
  M 669.83 775.56
  C 677.36 749.06 688.07 666.93 648.25 656.73
  Q 632.51 652.69 618.61 661.78"
/>
<path stroke="#fac17c" vector-effect="non-scaling-stroke" d="
  M 668.22 574.65
  C 685.31 563.63 697.15 540.83 703.72 522.78
  Q 718.44 482.35 719.34 439.47
  A 0.78 0.78 0.0 0 0 718.45 438.68
  C 698.43 441.45 680.86 448.93 664.25 459.94
  C 656.17 465.29 648.84 472.25 641.93 479.29
  C 629.29 492.15 621.09 506.87 616.31 524.00
  C 615.08 528.38 615.26 532.74 615.21 537.29
  C 615.09 549.06 619.32 559.24 627.42 567.57
  C 638.40 578.86 654.24 583.66 668.22 574.65"
/>
<path stroke="#fac17c" vector-effect="non-scaling-stroke" d="
  M 834.66 557.51
  C 834.92 518.87 817.21 481.32 792.01 452.83
  Q 791.61 452.38 791.33 452.91
  C 778.46 476.85 769.48 501.33 762.43 527.93
  Q 756.74 549.39 756.47 573.27
  C 756.33 585.64 757.93 596.30 764.34 605.94
  C 775.41 622.58 800.08 620.73 813.72 609.72
  C 828.95 597.44 834.54 576.07 834.66 557.51"
/>
<path stroke="#ea6f6a" vector-effect="non-scaling-stroke" d="
  M 855.88 645.32
  Q 848.38 636.59 838.12 632.84"
/>
<path stroke="#ab6d34" vector-effect="non-scaling-stroke" d="
  M 625.71 538.64
  Q 630.47 549.21 639.28 555.01
  C 664.33 571.50 684.60 537.18 692.84 519.01
  Q 707.46 486.70 712.24 451.22"
/>
<path stroke="#b67836" vector-effect="non-scaling-stroke" d="
  M 712.24 451.22
  L 712.99 445.27
  A 0.50 0.49 -88.1 0 0 712.47 444.71
  C 689.37 446.27 666.95 458.95 650.48 474.61
  C 635.31 489.03 619.86 510.32 623.77 532.49
  Q 624.29 535.40 625.71 538.64"
/>
<path stroke="#6c3206" vector-effect="non-scaling-stroke" d="
  M 712.24 451.22
  Q 710.84 451.06 710.59 451.82
  C 703.20 474.34 691.60 494.96 678.61 515.08
  Q 669.04 529.89 654.85 539.94
  C 649.27 543.89 639.58 547.36 633.47 543.09
  Q 629.96 540.63 625.71 538.64"
/>
<path stroke="#ab6d34" vector-effect="non-scaling-stroke" d="
  M 770.99 592.48
  Q 786.99 605.50 803.29 594.62
  C 814.10 587.40 818.74 573.32 820.45 560.99
  C 824.56 531.30 816.16 499.54 799.31 474.95"
/>
<path stroke="#b67836" vector-effect="non-scaling-stroke" d="
  M 799.31 474.95
  L 791.54 464.93
  A 0.38 0.38 0.0 0 0 790.90 464.98
  Q 772.61 497.71 764.23 534.36
  C 759.85 553.52 756.88 576.45 770.99 592.48"
/>
<path stroke="#6c3206" vector-effect="non-scaling-stroke" d="
  M 799.31 474.95
  L 798.77 475.99
  Q 798.53 476.44 798.76 476.90
  C 812.56 504.28 812.76 540.52 799.02 568.06
  C 795.99 574.14 791.20 579.90 786.87 585.43
  A 3.85 3.78 11.2 0 1 784.86 586.75
  Q 778.60 588.43 771.73 590.21
  Q 770.82 590.45 770.99 592.48"
/>
<path stroke="#c73324" vector-effect="non-scaling-stroke" d="
  M 401.91 794.97
  L 401.99 803.16"
/>
<path stroke="#c73324" vector-effect="non-scaling-stroke" d="
  M 333.10 658.43
  Q 328.64 662.00 325.98 666.04"
/>
<path stroke="#c73324" vector-effect="non-scaling-stroke" d="
  M 347.09 714.79
  Q 347.47 705.25 347.00 696.22
  C 346.95 695.23 346.47 694.46 346.46 693.42"
/>
<path stroke="#ef9874" vector-effect="non-scaling-stroke" d="
  M 346.46 693.42
  Q 346.09 693.59 346.64 693.45
  Q 346.70 693.44 346.70 693.38
  C 346.59 688.07 345.21 658.23 338.20 656.39
  C 336.36 655.91 334.55 657.38 333.10 658.43"
/>
<path stroke="#d7816d" vector-effect="non-scaling-stroke" d="
  M 346.46 693.42
  L 333.10 658.43"
/>
<path stroke="#f5794f" vector-effect="non-scaling-stroke" d="
  M 746.18 692.90
  L 745.61 705.20"
/>
<path stroke="#f5794f" vector-effect="non-scaling-stroke" d="
  M 694.82 748.69
  L 694.28 737.44"
/>
<path stroke="#ea6f6a" vector-effect="non-scaling-stroke" d="
  M 767.09 696.18
  L 770.97 681.29"
/>
<path stroke="#ef8896" vector-effect="non-scaling-stroke" d="
  M 813.82 732.87
  C 817.01 734.72 820.71 736.34 824.33 736.12
  C 842.33 735.05 844.91 682.14 831.28 678.82
  C 824.43 677.15 818.96 690.44 817.40 695.47
  C 813.88 706.80 811.53 720.07 813.17 731.91
  A 1.32 1.31 -79.2 0 0 813.82 732.87"
/>
<path stroke="#d52652" vector-effect="non-scaling-stroke" d="
  M 469.32 852.67
  L 469.20 858.62"
/>
<path stroke="#d52652" vector-effect="non-scaling-stroke" d="
  M 424.34 828.01
  L 423.99 821.34"
/>
<path stroke="#fd8ba2" vector-effect="non-scaling-stroke" d="
  M 498.81 694.69
  C 489.70 690.21 481.01 710.37 478.50 716.95
  C 471.56 735.10 467.08 756.07 473.96 774.26
  A 1.20 1.19 -14.6 0 0 475.25 775.01
  C 496.03 771.84 505.10 734.18 505.55 717.24
  C 505.70 711.91 504.50 697.49 498.81 694.69"
/>
<path stroke="#d54727" vector-effect="non-scaling-stroke" d="
  M 669.83 775.56
  C 660.10 803.40 643.04 821.34 612.92 825.32
  C 611.71 825.48 610.56 826.22 609.30 826.42"
/>
<path stroke="#fda062" vector-effect="non-scaling-stroke" d="
  M 609.30 826.42
  C 608.31 826.28 605.12 826.88 605.65 828.54"
/>
<path stroke="#d54727" vector-effect="non-scaling-stroke" d="
  M 605.65 828.54
  Q 606.94 849.16 605.44 869.78"
/>
<path stroke="#d54727" vector-effect="non-scaling-stroke" d="
  M 564.83 869.99
  L 561.97 848.74"
/>
<path stroke="#fdac77" vector-effect="non-scaling-stroke" d="
  M 638.67 697.80
  C 632.95 688.89 624.85 698.24 621.99 703.28
  C 610.73 723.18 602.57 752.54 611.07 774.53
  Q 611.25 774.99 611.74 774.95
  C 636.20 773.12 649.40 714.51 638.67 697.80"
/>
<path stroke="#bb3121" vector-effect="non-scaling-stroke" d="
  M 878.65 920.39
  L 879.68 946.96"
/>
<path stroke="#a41a1a" vector-effect="non-scaling-stroke" d="
  M 687.70 884.22
  Q 690.16 881.60 688.59 877.97
  Q 688.39 877.51 688.55 877.03
  C 689.95 872.83 687.74 870.96 687.03 867.36
  Q 685.97 862.03 683.66 857.06
  A 2.02 2.01 34.9 0 1 683.49 856.12
  C 683.53 855.37 683.54 854.67 683.20 853.96
  Q 679.95 847.14 676.41 840.45
  C 673.04 834.08 671.76 827.95 670.13 821.14
  C 667.42 809.84 668.48 795.92 669.87 784.69
  C 670.42 780.18 673.77 777.06 672.67 772.54"
/>
<path stroke="#d77558" vector-effect="non-scaling-stroke" d="
  M 605.65 828.54
  L 609.30 826.42"
/>
<path stroke="#bb3121" vector-effect="non-scaling-stroke" d="
  M 924.55 892.88
  L 925.04 936.98"
/>
<path stroke="#c9244f" vector-effect="non-scaling-stroke" d="
  M 946.02 929.82
  C 945.92 906.39 945.25 893.16 948.02 874.73"
/>
</g>
<path fill="#773d08" d="
  M 839.32 6.46
  C 819.08 13.20 802.36 28.68 779.57 24.83
  Q 779.15 21.40 781.43 18.40
  C 792.08 4.35 816.84 -2.39 833.48 1.29
  C 836.60 1.98 837.75 3.90 839.32 6.46
  Z"
/>
<path fill="#602703" d="
  M 839.32 6.46
  C 848.56 22.83 851.28 45.09 852.21 63.42
  Q 854.75 113.07 846.33 162.02
  Q 840.91 191.67 832.96 220.81
  Q 832.68 221.85 832.25 222.63
  Q 830.28 232.56 826.92 241.81
  L 823.42 245.68
  C 820.53 249.12 805.84 267.62 800.58 261.12
  Q 797.17 256.90 792.70 246.39
  Q 792.96 245.62 791.55 242.50
  Q 791.97 241.62 793.14 242.39
  Q 793.52 242.64 793.66 242.21
  C 803.26 213.21 806.51 186.85 807.50 158.50
  Q 807.58 156.26 807.22 154.06
  Q 808.83 106.28 795.44 60.32
  Q 789.82 41.04 779.57 24.83
  C 802.36 28.68 819.08 13.20 839.32 6.46
  Z"
/>
<path fill="#af1c1d" d="
  M 807.22 154.06
  Q 807.58 156.26 807.50 158.50
  C 806.51 186.85 803.26 213.21 793.66 242.21
  Q 793.52 242.64 793.14 242.39
  Q 791.97 241.62 791.55 242.50
  C 776.99 198.76 756.22 162.79 719.45 134.77
  C 663.71 92.29 588.50 65.34 517.87 74.05
  C 480.06 78.72 446.62 94.27 418.39 119.72
  C 279.86 244.65 273.45 450.14 320.25 616.96
  L 311.10 621.54
  L 304.47 596.89
  C 306.99 581.84 306.25 569.97 295.62 558.43
  Q 284.75 501.07 282.38 444.31
  C 281.06 412.60 283.72 379.32 288.74 347.75
  Q 288.77 347.51 289.79 344.40
  C 290.28 342.92 289.89 341.00 290.14 339.55
  Q 295.42 309.59 304.64 280.61
  C 304.95 279.64 306.03 278.55 306.13 277.13
  Q 306.21 276.07 306.36 275.61
  C 323.73 222.40 353.13 171.74 392.86 132.00
  C 420.23 104.62 456.09 76.16 495.32 68.09
  C 535.12 59.90 576.78 60.48 616.15 70.69
  C 669.65 84.57 723.21 114.85 767.55 136.22
  Q 784.61 144.44 807.22 154.06
  Z"
/>
<path fill="#ffe6bd" d="
  M 791.55 242.50
  Q 792.96 245.62 792.70 246.39
  Q 793.40 261.71 793.25 276.15
  Q 793.12 288.19 791.27 295.68
  C 788.06 308.69 781.20 322.26 770.50 330.74
  C 762.75 336.89 755.35 341.82 746.08 347.14
  C 694.08 376.96 644.04 403.20 606.03 448.00
  C 574.47 485.20 549.98 542.11 569.99 590.91
  C 576.44 606.64 583.30 616.40 591.58 628.49
  Q 591.87 628.91 592.32 629.16
  Q 593.28 629.70 593.00 630.85
  Q 592.88 631.34 593.22 631.72
  C 594.78 633.44 601.91 640.45 602.27 642.00
  Q 602.38 642.46 602.69 642.83
  C 606.97 648.05 611.59 653.15 615.52 658.64
  Q 616.65 660.23 618.61 661.78
  L 608.02 668.60
  Q 607.51 668.93 607.41 668.32
  C 605.84 658.43 603.94 641.79 593.18 638.07
  C 584.19 634.97 573.20 638.68 568.41 647.26
  Q 566.78 650.19 566.18 656.08
  C 560.68 710.73 560.50 765.93 561.26 820.81
  C 561.30 823.93 562.60 847.94 561.97 848.74
  C 531.93 859.09 500.17 861.68 469.32 852.67
  L 468.75 827.55
  Q 468.73 827.03 469.24 826.93
  Q 475.96 825.47 482.65 824.04
  C 515.37 817.01 531.58 790.30 536.67 759.33
  C 541.19 731.77 548.42 654.18 501.06 655.61
  C 488.88 655.98 480.72 662.34 471.04 668.59
  Q 470.54 668.91 470.43 668.32
  C 468.68 658.55 467.51 643.16 456.82 638.41
  C 446.61 633.88 430.67 640.82 429.47 652.75
  C 423.82 708.81 423.74 764.89 423.99 821.34
  Q 412.08 808.75 401.91 794.97
  Q 401.25 790.81 401.25 789.19
  C 401.36 755.81 401.88 722.45 397.84 689.24
  C 395.02 666.11 387.08 629.96 364.72 617.32
  C 351.48 609.84 334.31 612.10 320.25 616.96
  C 273.45 450.14 279.86 244.65 418.39 119.72
  C 446.62 94.27 480.06 78.72 517.87 74.05
  C 588.50 65.34 663.71 92.29 719.45 134.77
  C 756.22 162.79 776.99 198.76 791.55 242.50
  Z"
/>
<path fill="#af1c1d" d="
  M 1134.72 185.32
  L 1135.03 185.98
  Q 1135.29 186.51 1134.73 186.71
  Q 1133.12 187.28 1131.82 185.89
  Q 1131.47 185.51 1130.99 185.33
  Q 1124.86 182.93 1118.66 180.76
  C 1114.59 179.33 1110.45 176.17 1106.93 175.07
  C 1082.48 167.43 1064.74 162.54 1044.50 160.49
  Q 1015.20 157.53 985.87 159.53
  C 964.75 160.98 942.70 164.36 923.07 170.31
  C 914.07 173.04 901.11 176.10 890.49 181.28
  Q 871.13 190.72 854.02 203.78
  C 852.10 205.24 850.91 207.38 849.01 208.72
  Q 840.29 214.86 833.58 223.13
  Q 833.27 223.52 832.85 223.26
  Q 832.55 223.07 832.25 222.63
  Q 832.68 221.85 832.96 220.81
  Q 840.91 191.67 846.33 162.02
  C 852.83 161.44 859.70 161.12 865.86 160.47
  C 956.12 150.90 1052.15 135.55 1134.72 185.32
  Z"
/>
<path fill="#981817" d="
  M 1134.72 185.32
  C 1231.59 239.55 1278.16 334.97 1285.43 443.46
  Q 1286.09 453.26 1285.44 463.44
  C 1275.65 616.88 1194.38 756.88 1075.88 853.08
  Q 1073.08 845.22 1066.62 842.91
  C 1050.09 837.01 1037.92 846.90 1033.75 862.25
  Q 1030.76 873.25 1029.86 886.50
  Q 1014.98 896.23 999.44 904.72
  Q 999.93 885.28 999.71 878.57
  C 999.23 863.65 996.34 849.27 978.87 847.15
  Q 1013.51 813.16 1043.47 774.96
  C 1103.74 698.10 1152.93 609.78 1181.80 516.27
  C 1206.66 435.72 1219.33 325.15 1152.21 259.41
  C 1095.04 203.42 1020.25 170.16 939.24 178.49
  C 892.20 183.32 856.87 206.57 826.92 241.81
  Q 830.28 232.56 832.25 222.63
  Q 832.55 223.07 832.85 223.26
  Q 833.27 223.52 833.58 223.13
  Q 840.29 214.86 849.01 208.72
  C 850.91 207.38 852.10 205.24 854.02 203.78
  Q 871.13 190.72 890.49 181.28
  C 901.11 176.10 914.07 173.04 923.07 170.31
  C 942.70 164.36 964.75 160.98 985.87 159.53
  Q 1015.20 157.53 1044.50 160.49
  C 1064.74 162.54 1082.48 167.43 1106.93 175.07
  C 1110.45 176.17 1114.59 179.33 1118.66 180.76
  Q 1124.86 182.93 1130.99 185.33
  Q 1131.47 185.51 1131.82 185.89
  Q 1133.12 187.28 1134.73 186.71
  Q 1135.29 186.51 1135.03 185.98
  L 1134.72 185.32
  Z"
/>
<path fill="#ffe6bd" d="
  M 978.87 847.15
  C 959.20 844.62 952.03 858.66 948.02 874.73
  L 924.55 892.88
  Q 924.09 871.07 922.08 849.58
  C 920.64 834.25 916.92 818.36 898.15 819.10
  C 881.79 819.75 876.19 832.83 876.20 847.01
  Q 876.22 881.44 878.65 920.39
  C 839.85 939.38 798.58 944.63 759.87 921.90
  C 714.29 895.13 687.10 842.43 676.60 792.49
  Q 677.98 791.66 677.60 790.47
  Q 677.43 789.96 677.70 789.49
  Q 678.52 788.02 678.52 786.91
  Q 682.51 771.06 689.81 757.02
  Q 689.89 756.88 690.91 754.37
  Q 691.46 753.03 692.48 751.93
  Q 692.82 751.56 692.93 751.07
  Q 693.36 749.13 694.82 748.69
  C 695.24 770.65 698.39 828.15 718.30 841.68
  C 729.34 849.18 743.59 843.23 746.93 830.78
  C 748.38 825.38 747.58 816.58 747.31 811.00
  C 745.59 775.55 742.94 743.77 745.61 705.20
  L 767.09 696.18
  C 759.26 738.90 756.48 836.67 819.75 843.55
  C 837.36 845.47 858.08 839.67 869.94 825.94
  C 878.75 815.75 881.56 793.88 862.47 792.44
  Q 858.15 792.12 854.81 793.54
  C 840.44 799.63 825.74 807.21 816.95 788.48
  Q 812.41 778.82 811.18 767.95
  Q 811.12 767.42 811.65 767.51
  Q 819.29 768.83 821.51 768.97
  C 845.17 770.52 860.74 755.23 867.59 733.83
  C 876.70 705.33 875.11 669.70 855.88 645.32
  C 864.59 635.07 869.91 619.51 872.56 606.51
  C 883.14 554.61 872.69 503.29 852.47 454.97
  C 841.51 428.77 828.92 403.40 816.70 377.77
  C 809.79 363.26 803.19 346.53 801.98 330.59
  Q 800.26 307.80 807.29 286.07
  C 810.55 276.01 816.86 263.55 821.61 252.34
  C 821.79 251.92 821.74 251.19 821.76 250.73
  C 824.30 249.42 823.32 247.78 823.42 245.68
  L 826.92 241.81
  C 856.87 206.57 892.20 183.32 939.24 178.49
  C 1020.25 170.16 1095.04 203.42 1152.21 259.41
  C 1219.33 325.15 1206.66 435.72 1181.80 516.27
  C 1152.93 609.78 1103.74 698.10 1043.47 774.96
  Q 1013.51 813.16 978.87 847.15
  Z"
/>
<path fill="#ffce93" d="
  M 823.42 245.68
  C 823.32 247.78 824.30 249.42 821.76 250.73
  L 821.76 250.31
  Q 821.76 249.88 821.37 250.06
  L 820.82 250.33
  A 0.99 0.93 -2.6 0 0 820.34 250.82
  Q 819.38 253.00 818.18 255.03
  C 814.56 261.14 812.09 268.60 808.53 277.47
  Q 799.19 300.76 797.57 325.07
  C 796.20 345.61 805.26 368.54 813.50 387.50
  C 828.53 422.05 841.28 452.18 849.75 486.71
  Q 862.60 539.04 853.10 591.75
  C 850.38 606.85 845.14 619.31 838.12 632.84
  C 816.21 626.62 795.96 636.39 783.65 654.19
  Q 774.96 666.74 770.97 681.29
  Q 758.44 686.54 746.18 692.90
  C 746.94 676.53 750.43 629.30 733.25 622.98
  C 697.04 609.68 694.50 664.95 694.24 686.00
  Q 694.05 700.82 694.28 737.44
  Q 692.59 740.61 691.47 743.90
  C 690.51 746.76 688.51 749.01 687.52 752.01
  Q 685.19 759.11 683.18 766.27
  C 682.50 768.72 680.60 770.88 680.92 773.91
  Q 681.00 774.64 680.45 775.69
  Q 677.91 780.64 678.52 786.91
  Q 678.52 788.02 677.70 789.49
  Q 677.43 789.96 677.60 790.47
  Q 677.98 791.66 676.60 792.49
  Q 674.16 782.55 673.92 772.16
  A 0.52 0.51 68.2 0 0 673.06 771.79
  Q 672.64 772.17 672.67 772.54
  L 669.83 775.56
  C 677.36 749.06 688.07 666.93 648.25 656.73
  Q 632.51 652.69 618.61 661.78
  Q 616.65 660.23 615.52 658.64
  C 611.59 653.15 606.97 648.05 602.69 642.83
  Q 602.38 642.46 602.27 642.00
  C 601.91 640.45 594.78 633.44 593.22 631.72
  Q 592.88 631.34 593.00 630.85
  Q 593.28 629.70 592.32 629.16
  Q 591.87 628.91 591.58 628.49
  C 583.30 616.40 576.44 606.64 569.99 590.91
  C 549.98 542.11 574.47 485.20 606.03 448.00
  C 644.04 403.20 694.08 376.96 746.08 347.14
  C 755.35 341.82 762.75 336.89 770.50 330.74
  C 781.20 322.26 788.06 308.69 791.27 295.68
  Q 793.12 288.19 793.25 276.15
  Q 793.40 261.71 792.70 246.39
  Q 797.17 256.90 800.58 261.12
  C 805.84 267.62 820.53 249.12 823.42 245.68
  Z
  M 668.22 574.65
  C 685.31 563.63 697.15 540.83 703.72 522.78
  Q 718.44 482.35 719.34 439.47
  A 0.78 0.78 0.0 0 0 718.45 438.68
  C 698.43 441.45 680.86 448.93 664.25 459.94
  C 656.17 465.29 648.84 472.25 641.93 479.29
  C 629.29 492.15 621.09 506.87 616.31 524.00
  C 615.08 528.38 615.26 532.74 615.21 537.29
  C 615.09 549.06 619.32 559.24 627.42 567.57
  C 638.40 578.86 654.24 583.66 668.22 574.65
  Z
  M 834.66 557.51
  C 834.92 518.87 817.21 481.32 792.01 452.83
  Q 791.61 452.38 791.33 452.91
  C 778.46 476.85 769.48 501.33 762.43 527.93
  Q 756.74 549.39 756.47 573.27
  C 756.33 585.64 757.93 596.30 764.34 605.94
  C 775.41 622.58 800.08 620.73 813.72 609.72
  C 828.95 597.44 834.54 576.07 834.66 557.51
  Z"
/>
<path fill="#f5b364" d="
  M 821.76 250.73
  C 821.74 251.19 821.79 251.92 821.61 252.34
  C 816.86 263.55 810.55 276.01 807.29 286.07
  Q 800.26 307.80 801.98 330.59
  C 803.19 346.53 809.79 363.26 816.70 377.77
  C 828.92 403.40 841.51 428.77 852.47 454.97
  C 872.69 503.29 883.14 554.61 872.56 606.51
  C 869.91 619.51 864.59 635.07 855.88 645.32
  Q 848.38 636.59 838.12 632.84
  C 845.14 619.31 850.38 606.85 853.10 591.75
  Q 862.60 539.04 849.75 486.71
  C 841.28 452.18 828.53 422.05 813.50 387.50
  C 805.26 368.54 796.20 345.61 797.57 325.07
  Q 799.19 300.76 808.53 277.47
  C 812.09 268.60 814.56 261.14 818.18 255.03
  Q 819.38 253.00 820.34 250.82
  A 0.99 0.93 -2.6 0 1 820.82 250.33
  L 821.37 250.06
  Q 821.76 249.88 821.76 250.31
  L 821.76 250.73
  Z"
/>
<path fill="#de2a6f" d="
  M 186.19 647.56
  C 176.30 640.72 177.29 622.63 178.38 611.76
  C 181.08 584.65 189.19 559.00 198.72 533.62
  Q 209.94 503.77 220.29 473.61
  C 223.92 463.03 227.38 436.38 241.05 433.84
  C 242.74 433.53 249.18 434.91 250.76 436.02
  C 268.21 448.28 264.09 466.24 258.69 484.69
  C 243.29 537.32 222.35 595.66 205.67 640.93
  C 202.86 648.54 193.23 652.43 186.19 647.56
  Z"
/>
<path fill="#f53f3a" d="
  M 0.00 553.43
  L 0.00 543.45
  C 0.81 511.13 9.86 465.25 36.86 444.27
  C 62.54 424.31 89.30 438.92 100.74 465.52
  Q 108.21 482.87 110.38 502.56
  Q 115.43 548.25 103.74 592.65
  C 97.93 614.75 84.94 644.05 57.43 642.91
  C 17.83 641.28 1.81 584.21 0.00 553.43
  Z
  M 69.14 499.60
  C 65.44 492.16 58.16 490.80 53.19 498.20
  C 47.75 506.32 45.60 516.90 44.70 526.49
  C 43.46 539.72 42.68 580.52 55.30 588.23
  C 64.78 594.02 71.12 575.02 72.43 569.23
  C 77.27 547.97 78.61 518.71 69.14 499.60
  Z"
/>
<path fill="#f5b364" d="
  M 668.22 574.65
  C 654.24 583.66 638.40 578.86 627.42 567.57
  C 619.32 559.24 615.09 549.06 615.21 537.29
  C 615.26 532.74 615.08 528.38 616.31 524.00
  C 621.09 506.87 629.29 492.15 641.93 479.29
  C 648.84 472.25 656.17 465.29 664.25 459.94
  C 680.86 448.93 698.43 441.45 718.45 438.68
  A 0.78 0.78 0.0 0 1 719.34 439.47
  Q 718.44 482.35 703.72 522.78
  C 697.15 540.83 685.31 563.63 668.22 574.65
  Z
  M 625.71 538.64
  Q 630.47 549.21 639.28 555.01
  C 664.33 571.50 684.60 537.18 692.84 519.01
  Q 707.46 486.70 712.24 451.22
  L 712.99 445.27
  A 0.50 0.49 -88.1 0 0 712.47 444.71
  C 689.37 446.27 666.95 458.95 650.48 474.61
  C 635.31 489.03 619.86 510.32 623.77 532.49
  Q 624.29 535.40 625.71 538.64
  Z"
/>
<path fill="#773d08" d="
  M 712.24 451.22
  Q 710.84 451.06 710.59 451.82
  C 703.20 474.34 691.60 494.96 678.61 515.08
  Q 669.04 529.89 654.85 539.94
  C 649.27 543.89 639.58 547.36 633.47 543.09
  Q 629.96 540.63 625.71 538.64
  Q 624.29 535.40 623.77 532.49
  C 619.86 510.32 635.31 489.03 650.48 474.61
  C 666.95 458.95 689.37 446.27 712.47 444.71
  A 0.50 0.49 -88.1 0 1 712.99 445.27
  L 712.24 451.22
  Z"
/>
<path fill="#de2a6f" d="
  M 143.69 522.81
  Q 135.64 516.25 132.48 506.67
  C 126.22 487.64 135.94 455.54 157.64 450.07
  C 173.84 445.99 194.61 448.52 201.03 466.59
  Q 201.89 469.01 202.79 471.40
  C 214.66 503.30 177.80 550.62 143.69 522.81
  Z
  M 169.69 506.41
  Q 170.68 507.21 171.72 506.47
  C 178.18 501.88 180.27 491.66 179.45 484.34
  C 178.66 477.28 172.57 473.78 168.43 481.28
  C 164.62 488.19 162.47 500.59 169.69 506.41
  Z"
/>
<path fill="#602703" d="
  M 712.24 451.22
  Q 707.46 486.70 692.84 519.01
  C 684.60 537.18 664.33 571.50 639.28 555.01
  Q 630.47 549.21 625.71 538.64
  Q 629.96 540.63 633.47 543.09
  C 639.58 547.36 649.27 543.89 654.85 539.94
  Q 669.04 529.89 678.61 515.08
  C 691.60 494.96 703.20 474.34 710.59 451.82
  Q 710.84 451.06 712.24 451.22
  Z"
/>
<path fill="#f5b364" d="
  M 792.01 452.83
  C 817.21 481.32 834.92 518.87 834.66 557.51
  C 834.54 576.07 828.95 597.44 813.72 609.72
  C 800.08 620.73 775.41 622.58 764.34 605.94
  C 757.93 596.30 756.33 585.64 756.47 573.27
  Q 756.74 549.39 762.43 527.93
  C 769.48 501.33 778.46 476.85 791.33 452.91
  Q 791.61 452.38 792.01 452.83
  Z
  M 770.99 592.48
  Q 786.99 605.50 803.29 594.62
  C 814.10 587.40 818.74 573.32 820.45 560.99
  C 824.56 531.30 816.16 499.54 799.31 474.95
  L 791.54 464.93
  A 0.38 0.38 0.0 0 0 790.90 464.98
  Q 772.61 497.71 764.23 534.36
  C 759.85 553.52 756.88 576.45 770.99 592.48
  Z"
/>
<path fill="#773d08" d="
  M 799.31 474.95
  L 798.77 475.99
  Q 798.53 476.44 798.76 476.90
  C 812.56 504.28 812.76 540.52 799.02 568.06
  C 795.99 574.14 791.20 579.90 786.87 585.43
  A 3.85 3.78 11.2 0 1 784.86 586.75
  Q 778.60 588.43 771.73 590.21
  Q 770.82 590.45 770.99 592.48
  C 756.88 576.45 759.85 553.52 764.23 534.36
  Q 772.61 497.71 790.90 464.98
  A 0.38 0.38 0.0 0 1 791.54 464.93
  L 799.31 474.95
  Z"
/>
<path fill="#602703" d="
  M 799.31 474.95
  C 816.16 499.54 824.56 531.30 820.45 560.99
  C 818.74 573.32 814.10 587.40 803.29 594.62
  Q 786.99 605.50 770.99 592.48
  Q 770.82 590.45 771.73 590.21
  Q 778.60 588.43 784.86 586.75
  A 3.85 3.78 11.2 0 0 786.87 585.43
  C 791.20 579.90 795.99 574.14 799.02 568.06
  C 812.76 540.52 812.56 504.28 798.76 476.90
  Q 798.53 476.44 798.77 475.99
  L 799.31 474.95
  Z"
/>
<path fill="#de2a6f" d="
  M 295.62 558.43
  C 306.25 569.97 306.99 581.84 304.47 596.89
  Q 302.62 602.86 300.33 608.38
  C 291.22 630.32 264.24 654.65 241.94 630.26
  C 227.06 613.99 228.20 588.15 240.56 570.47
  C 252.05 554.04 278.80 541.85 295.62 558.43
  Z
  M 277.84 591.23
  C 278.68 587.21 275.33 583.65 271.25 585.54
  Q 266.17 587.88 264.54 593.27
  C 263.27 597.45 261.79 605.72 264.76 609.41
  Q 265.08 609.80 265.58 609.78
  C 271.36 609.55 276.88 595.84 277.84 591.23
  Z"
/>
<path fill="#de4a2a" d="
  M 401.91 794.97
  L 401.99 803.16
  C 402.97 819.34 401.63 839.05 382.18 843.62
  C 360.81 848.64 346.65 841.80 346.25 818.18
  Q 345.94 799.69 345.99 781.26
  A 0.51 0.51 0.0 0 0 345.48 780.75
  L 309.50 780.75
  A 0.43 0.42 89.3 0 0 309.08 781.19
  Q 309.57 800.52 310.26 819.99
  C 310.71 832.75 303.35 841.39 290.97 843.07
  C 267.82 846.21 263.90 808.43 262.95 793.43
  C 259.68 741.75 260.28 653.56 311.10 621.54
  L 320.25 616.96
  C 334.31 612.10 351.48 609.84 364.72 617.32
  C 387.08 629.96 395.02 666.11 397.84 689.24
  C 401.88 722.45 401.36 755.81 401.25 789.19
  Q 401.25 790.81 401.91 794.97
  Z
  M 333.10 658.43
  Q 328.64 662.00 325.98 666.04
  C 312.50 688.54 308.97 719.96 309.09 745.64
  A 0.63 0.63 0.0 0 0 309.74 746.27
  L 346.28 745.41
  Q 346.84 745.40 346.86 744.84
  Q 347.53 729.43 347.09 714.79
  Q 347.47 705.25 347.00 696.22
  C 346.95 695.23 346.47 694.46 346.46 693.42
  Q 346.09 693.59 346.64 693.45
  Q 346.70 693.44 346.70 693.38
  C 346.59 688.07 345.21 658.23 338.20 656.39
  C 336.36 655.91 334.55 657.38 333.10 658.43
  Z"
/>
<path fill="#f53f3a" d="
  M 746.18 692.90
  L 745.61 705.20
  C 742.94 743.77 745.59 775.55 747.31 811.00
  C 747.58 816.58 748.38 825.38 746.93 830.78
  C 743.59 843.23 729.34 849.18 718.30 841.68
  C 698.39 828.15 695.24 770.65 694.82 748.69
  L 694.28 737.44
  Q 694.05 700.82 694.24 686.00
  C 694.50 664.95 697.04 609.68 733.25 622.98
  C 750.43 629.30 746.94 676.53 746.18 692.90
  Z"
/>
<path fill="#de2a6f" d="
  M 838.12 632.84
  Q 848.38 636.59 855.88 645.32
  C 875.11 669.70 876.70 705.33 867.59 733.83
  C 860.74 755.23 845.17 770.52 821.51 768.97
  Q 819.29 768.83 811.65 767.51
  Q 811.12 767.42 811.18 767.95
  Q 812.41 778.82 816.95 788.48
  C 825.74 807.21 840.44 799.63 854.81 793.54
  Q 858.15 792.12 862.47 792.44
  C 881.56 793.88 878.75 815.75 869.94 825.94
  C 858.08 839.67 837.36 845.47 819.75 843.55
  C 756.48 836.67 759.26 738.90 767.09 696.18
  L 770.97 681.29
  Q 774.96 666.74 783.65 654.19
  C 795.96 636.39 816.21 626.62 838.12 632.84
  Z
  M 813.82 732.87
  C 817.01 734.72 820.71 736.34 824.33 736.12
  C 842.33 735.05 844.91 682.14 831.28 678.82
  C 824.43 677.15 818.96 690.44 817.40 695.47
  C 813.88 706.80 811.53 720.07 813.17 731.91
  A 1.32 1.31 -79.2 0 0 813.82 732.87
  Z"
/>
<path fill="#fa3086" d="
  M 469.32 852.67
  L 469.20 858.62
  C 468.66 869.45 468.99 889.25 454.81 892.30
  C 437.03 896.13 430.44 886.49 427.96 870.33
  Q 424.73 849.32 424.34 828.01
  L 423.99 821.34
  C 423.74 764.89 423.82 708.81 429.47 652.75
  C 430.67 640.82 446.61 633.88 456.82 638.41
  C 467.51 643.16 468.68 658.55 470.43 668.32
  Q 470.54 668.91 471.04 668.59
  C 480.72 662.34 488.88 655.98 501.06 655.61
  C 548.42 654.18 541.19 731.77 536.67 759.33
  C 531.58 790.30 515.37 817.01 482.65 824.04
  Q 475.96 825.47 469.24 826.93
  Q 468.73 827.03 468.75 827.55
  L 469.32 852.67
  Z
  M 498.81 694.69
  C 489.70 690.21 481.01 710.37 478.50 716.95
  C 471.56 735.10 467.08 756.07 473.96 774.26
  A 1.20 1.19 -14.6 0 0 475.25 775.01
  C 496.03 771.84 505.10 734.18 505.55 717.24
  C 505.70 711.91 504.50 697.49 498.81 694.69
  Z"
/>
<path fill="#fa7230" d="
  M 618.61 661.78
  Q 632.51 652.69 648.25 656.73
  C 688.07 666.93 677.36 749.06 669.83 775.56
  C 660.10 803.40 643.04 821.34 612.92 825.32
  C 611.71 825.48 610.56 826.22 609.30 826.42
  C 608.31 826.28 605.12 826.88 605.65 828.54
  Q 606.94 849.16 605.44 869.78
  C 604.66 879.86 601.87 890.54 591.25 892.47
  C 573.40 895.72 567.05 885.73 564.83 869.99
  L 561.97 848.74
  C 562.60 847.94 561.30 823.93 561.26 820.81
  C 560.50 765.93 560.68 710.73 566.18 656.08
  Q 566.78 650.19 568.41 647.26
  C 573.20 638.68 584.19 634.97 593.18 638.07
  C 603.94 641.79 605.84 658.43 607.41 668.32
  Q 607.51 668.93 608.02 668.60
  L 618.61 661.78
  Z
  M 638.67 697.80
  C 632.95 688.89 624.85 698.24 621.99 703.28
  C 610.73 723.18 602.57 752.54 611.07 774.53
  Q 611.25 774.99 611.74 774.95
  C 636.20 773.12 649.40 714.51 638.67 697.80
  Z"
/>
<path fill="#ffe6bd" d="
  M 346.46 693.42
  L 333.10 658.43
  C 334.55 657.38 336.36 655.91 338.20 656.39
  C 345.21 658.23 346.59 688.07 346.70 693.38
  Q 346.70 693.44 346.64 693.45
  Q 346.09 693.59 346.46 693.42
  Z"
/>
<path fill="#af1c1d" d="
  M 333.10 658.43
  L 346.46 693.42
  C 346.47 694.46 346.95 695.23 347.00 696.22
  Q 347.47 705.25 347.09 714.79
  Q 335.43 690.99 325.98 666.04
  Q 328.64 662.00 333.10 658.43
  Z"
/>
<path fill="#ffe6bd" d="
  M 813.82 732.87
  A 1.32 1.31 -79.2 0 1 813.17 731.91
  C 811.53 720.07 813.88 706.80 817.40 695.47
  C 818.96 690.44 824.43 677.15 831.28 678.82
  C 844.91 682.14 842.33 735.05 824.33 736.12
  C 820.71 736.34 817.01 734.72 813.82 732.87
  Z"
/>
<path fill="#f5b364" d="
  M 770.97 681.29
  L 767.09 696.18
  L 745.61 705.20
  L 746.18 692.90
  Q 758.44 686.54 770.97 681.29
  Z"
/>
<path fill="#ffe6bd" d="
  M 498.81 694.69
  C 504.50 697.49 505.70 711.91 505.55 717.24
  C 505.10 734.18 496.03 771.84 475.25 775.01
  A 1.20 1.19 -14.6 0 1 473.96 774.26
  C 467.08 756.07 471.56 735.10 478.50 716.95
  C 481.01 710.37 489.70 690.21 498.81 694.69
  Z"
/>
<path fill="#ffe6bd" d="
  M 638.67 697.80
  C 649.40 714.51 636.20 773.12 611.74 774.95
  Q 611.25 774.99 611.07 774.53
  C 602.57 752.54 610.73 723.18 621.99 703.28
  C 624.85 698.24 632.95 688.89 638.67 697.80
  Z"
/>
<path fill="#f5b364" d="
  M 694.28 737.44
  L 694.82 748.69
  Q 693.36 749.13 692.93 751.07
  Q 692.82 751.56 692.48 751.93
  Q 691.46 753.03 690.91 754.37
  Q 689.89 756.88 689.81 757.02
  Q 682.51 771.06 678.52 786.91
  Q 677.91 780.64 680.45 775.69
  Q 681.00 774.64 680.92 773.91
  C 680.60 770.88 682.50 768.72 683.18 766.27
  Q 685.19 759.11 687.52 752.01
  C 688.51 749.01 690.51 746.76 691.47 743.90
  Q 692.59 740.61 694.28 737.44
  Z"
/>
<path fill="#981817" d="
  M 676.60 792.49
  C 687.10 842.43 714.29 895.13 759.87 921.90
  C 798.58 944.63 839.85 939.38 878.65 920.39
  L 879.68 946.96
  Q 863.11 949.41 844.26 948.74
  C 798.78 947.13 757.35 935.08 720.51 907.98
  Q 704.22 896.00 687.70 884.22
  Q 690.16 881.60 688.59 877.97
  Q 688.39 877.51 688.55 877.03
  C 689.95 872.83 687.74 870.96 687.03 867.36
  Q 685.97 862.03 683.66 857.06
  A 2.02 2.01 34.9 0 1 683.49 856.12
  C 683.53 855.37 683.54 854.67 683.20 853.96
  Q 679.95 847.14 676.41 840.45
  C 673.04 834.08 671.76 827.95 670.13 821.14
  C 667.42 809.84 668.48 795.92 669.87 784.69
  C 670.42 780.18 673.77 777.06 672.67 772.54
  Q 672.64 772.17 673.06 771.79
  A 0.52 0.51 68.2 0 1 673.92 772.16
  Q 674.16 782.55 676.60 792.49
  Z"
/>
<path fill="#af1c1d" d="
  M 672.67 772.54
  C 673.77 777.06 670.42 780.18 669.87 784.69
  C 668.48 795.92 667.42 809.84 670.13 821.14
  C 671.76 827.95 673.04 834.08 676.41 840.45
  Q 679.95 847.14 683.20 853.96
  C 683.54 854.67 683.53 855.37 683.49 856.12
  A 2.02 2.01 34.9 0 0 683.66 857.06
  Q 685.97 862.03 687.03 867.36
  C 687.74 870.96 689.95 872.83 688.55 877.03
  Q 688.39 877.51 688.59 877.97
  Q 690.16 881.60 687.70 884.22
  C 676.95 877.76 665.16 872.12 653.75 871.99
  Q 648.60 871.93 645.02 871.51
  C 631.92 869.96 618.71 869.64 605.44 869.78
  Q 606.94 849.16 605.65 828.54
  L 609.30 826.42
  C 610.56 826.22 611.71 825.48 612.92 825.32
  C 643.04 821.34 660.10 803.40 669.83 775.56
  L 672.67 772.54
  Z"
/>
<path fill="#af1c1d" d="
  M 401.91 794.97
  Q 412.08 808.75 423.99 821.34
  L 424.34 828.01
  Q 412.58 816.13 401.99 803.16
  L 401.91 794.97
  Z"
/>
<path fill="#de4a2a" d="
  M 924.55 892.88
  L 925.04 936.98
  Q 924.87 960.26 924.78 983.50
  C 924.68 1009.64 916.86 1044.28 883.25 1043.96
  C 863.61 1043.77 804.91 1037.46 802.66 1009.66
  C 801.62 996.89 813.90 987.04 825.76 987.25
  C 842.75 987.54 861.81 993.18 879.06 996.73
  Q 879.59 996.84 879.60 996.30
  Q 880.28 971.62 879.68 946.96
  L 878.65 920.39
  Q 876.22 881.44 876.20 847.01
  C 876.19 832.83 881.79 819.75 898.15 819.10
  C 916.92 818.36 920.64 834.25 922.08 849.58
  Q 924.09 871.07 924.55 892.88
  Z"
/>
<path fill="#fa7230" d="
  M 1117.51 861.94
  C 1106.15 857.94 1102.43 845.39 1105.70 834.39
  C 1109.27 822.39 1123.18 818.10 1133.47 824.53
  C 1153.19 836.85 1138.80 869.41 1117.51 861.94
  Z"
/>
<path fill="#ffce93" d="
  M 609.30 826.42
  L 605.65 828.54
  C 605.12 826.88 608.31 826.28 609.30 826.42
  Z"
/>
<path fill="#de2a6f" d="
  M 1312.12 967.78
  Q 1313.34 978.44 1317.71 988.04
  C 1326.36 1007.06 1340.78 999.95 1355.80 993.55
  Q 1359.84 991.82 1364.70 992.53
  C 1381.55 994.98 1379.71 1013.75 1372.59 1023.97
  Q 1368.78 1029.42 1360.88 1034.43
  C 1340.15 1047.57 1311.43 1047.72 1291.94 1031.29
  C 1275.31 1017.27 1267.81 990.61 1265.68 969.31
  C 1262.35 935.96 1263.54 901.35 1275.79 870.31
  C 1285.30 846.20 1304.88 828.69 1332.00 831.21
  C 1360.23 833.84 1372.55 869.88 1373.84 893.49
  C 1375.85 930.33 1360.51 978.16 1312.56 967.38
  Q 1312.06 967.27 1312.12 967.78
  Z
  M 1314.69 932.85
  C 1339.40 947.13 1341.76 908.87 1340.61 895.57
  C 1340.19 890.63 1338.49 882.69 1334.43 879.82
  C 1326.23 874.01 1319.51 891.37 1317.99 896.55
  C 1314.53 908.31 1313.10 919.71 1314.12 931.95
  A 1.15 1.15 0.0 0 0 1314.69 932.85
  Z"
/>
<path fill="#f53f3a" d="
  M 1195.82 1042.29
  C 1172.71 1037.59 1163.18 1010.44 1159.66 990.18
  Q 1151.51 943.31 1161.77 896.89
  C 1166.21 876.77 1176.45 847.66 1197.64 839.31
  Q 1214.35 832.72 1230.56 842.70
  C 1249.11 854.12 1254.14 881.34 1248.74 900.75
  C 1246.17 909.99 1234.69 914.26 1228.03 905.95
  C 1221.84 898.21 1218.30 888.08 1214.44 879.06
  A 0.62 0.62 0.0 0 0 1213.39 878.92
  C 1202.45 892.29 1198.49 909.89 1196.80 925.81
  C 1195.36 939.38 1193.57 997.45 1206.03 1003.37
  C 1212.48 1006.43 1225.57 992.01 1231.71 989.26
  C 1241.21 985.01 1247.05 990.35 1248.72 999.48
  C 1253.62 1026.44 1219.49 1047.11 1195.82 1042.29
  Z"
/>
<path fill="#fa3086" d="
  M 1075.88 853.08
  Q 1077.63 860.12 1077.73 864.81
  C 1078.07 880.63 1077.32 898.69 1076.11 916.23
  C 1073.49 954.37 1069.96 992.20 1069.42 1030.68
  Q 1069.22 1045.15 1054.93 1048.00
  L 1051.43 1048.00
  C 1039.61 1045.94 1034.74 1034.40 1031.30 1024.29
  A 0.59 0.59 0.0 0 0 1030.38 1024.01
  C 1020.24 1031.70 1008.43 1040.44 994.97 1039.89
  C 947.55 1037.93 945.77 962.31 946.02 929.82
  C 945.92 906.39 945.25 893.16 948.02 874.73
  C 952.03 858.66 959.20 844.62 978.87 847.15
  C 996.34 849.27 999.23 863.65 999.71 878.57
  Q 999.93 885.28 999.44 904.72
  Q 996.86 940.85 996.44 967.24
  C 996.33 973.90 999.03 989.63 1008.02 990.01
  C 1023.05 990.65 1026.87 972.87 1028.18 961.23
  C 1030.94 936.79 1029.30 911.31 1029.86 886.50
  Q 1030.76 873.25 1033.75 862.25
  C 1037.92 846.90 1050.09 837.01 1066.62 842.91
  Q 1073.08 845.22 1075.88 853.08
  Z"
/>
<path fill="#af1c1d" d="
  M 561.97 848.74
  L 564.83 869.99
  C 531.96 869.55 501.00 867.28 469.20 858.62
  L 469.32 852.67
  C 500.17 861.68 531.93 859.09 561.97 848.74
  Z"
/>
<path fill="#981817" d="
  M 948.02 874.73
  C 945.25 893.16 945.92 906.39 946.02 929.82
  L 925.04 936.98
  L 924.55 892.88
  L 948.02 874.73
  Z"
/>
<path fill="#fa7230" d="
  M 1115.17 1039.58
  C 1096.43 1022.85 1092.96 994.14 1092.63 970.56
  C 1092.36 950.97 1086.98 880.40 1122.72 884.21
  C 1136.83 885.72 1141.63 896.81 1141.01 909.57
  Q 1139.18 947.69 1137.41 985.82
  C 1136.87 997.61 1138.55 1009.48 1139.68 1021.31
  C 1139.97 1024.38 1139.97 1028.51 1138.99 1031.55
  C 1135.78 1041.61 1123.88 1047.36 1115.17 1039.58
  Z"
/>
</svg>
