<?xml version="1.0" encoding="UTF-8" standalone="no"?>
<!DOCTYPE svg PUBLIC "-//W3C//DTD SVG 1.1//EN" "http://www.w3.org/Graphics/SVG/1.1/DTD/svg11.dtd">
<svg xmlns="http://www.w3.org/2000/svg" version="1.1" viewBox="0.00 0.00 1010.00 953.00">
<g stroke-width="2.00" fill="none" stroke-linecap="butt">
<path stroke="#6c3206" vector-effect="non-scaling-stroke" d="
  M 560.25 8.14
  Q 557.84 9.30 555.44 10.12
  C 549.34 12.22 543.62 15.69 537.79 18.44
  C 524.18 24.87 515.32 29.17 500.52 26.90"
/>
<path stroke="#882210" vector-effect="non-scaling-stroke" d="
  M 567.29 164.09
  Q 561.75 194.63 553.19 224.69"
/>
<path stroke="#7d200d" vector-effect="non-scaling-stroke" d="
  M 553.19 224.69
  C 551.70 231.29 550.11 237.51 547.83 243.87"
/>
<path stroke="#b08760" vector-effect="non-scaling-stroke" d="
  M 547.83 243.87
  L 544.45 247.60"
/>
<path stroke="#b07b4b" vector-effect="non-scaling-stroke" d="
  M 544.45 247.60
  C 540.97 251.94 529.94 265.59 524.02 264.21
  C 519.45 263.14 515.69 252.93 514.44 248.93"
/>
<path stroke="#b08760" vector-effect="non-scaling-stroke" d="
  M 514.44 248.93
  L 513.70 247.35"
/>
<path stroke="#882210" vector-effect="non-scaling-stroke" d="
  M 513.70 247.35
  Q 528.61 203.34 528.27 156.94
  Q 528.26 156.20 527.75 155.89"
/>
<path stroke="#a31a1a" vector-effect="non-scaling-stroke" d="
  M 855.75 187.28
  Q 855.97 188.26 855.37 188.68
  A 0.90 0.88 -50.0 0 1 854.47 188.77
  Q 850.88 187.10 847.25 185.58
  C 842.20 183.45 837.61 183.39 832.89 180.12
  Q 829.82 177.99 826.25 176.79
  C 807.64 170.53 788.10 165.24 768.59 162.94
  Q 737.05 159.23 705.38 161.57
  C 693.72 162.42 680.27 164.55 667.75 166.25
  C 657.20 167.68 644.39 172.42 633.00 175.32
  C 619.86 178.66 610.00 183.99 598.81 189.57
  Q 596.55 190.70 594.03 192.95
  C 589.84 196.69 584.81 198.66 580.67 201.67
  C 577.99 203.62 574.85 205.37 572.83 208.02
  Q 571.92 209.22 570.76 210.06
  C 565.36 214.01 558.58 219.28 555.12 225.32
  A 0.87 0.86 -75.0 0 1 554.37 225.76
  Q 553.53 225.76 553.19 224.69"
/>
<path stroke="#d7816d" vector-effect="non-scaling-stroke" d="
  M 513.70 247.35
  Q 510.29 237.88 506.98 228.64
  C 494.75 194.49 473.29 162.84 444.87 140.30
  C 363.76 75.96 233.12 42.46 145.29 116.56
  C 83.38 168.79 42.88 244.71 26.36 324.08
  C 15.78 374.89 13.35 426.34 16.63 478.49"
/>
<path stroke="#882210" vector-effect="non-scaling-stroke" d="
  M 16.63 478.49
  C 16.39 480.84 15.20 490.94 17.57 490.20"
/>
<path stroke="#d7816d" vector-effect="non-scaling-stroke" d="
  M 17.57 490.20
  Q 26.16 584.33 58.78 672.99
  C 75.96 719.70 98.52 765.23 129.07 804.71
  C 147.10 828.01 170.14 850.79 200.06 857.22
  C 266.96 871.58 337.06 832.41 382.77 786.80"
/>
<path stroke="#d77558" vector-effect="non-scaling-stroke" d="
  M 382.77 786.80
  L 392.95 775.37"
/>
<path stroke="#a31a1a" vector-effect="non-scaling-stroke" d="
  M 392.95 775.37
  L 393.95 782.95
  Q 394.01 783.42 393.59 783.64
  L 392.01 784.44
  Q 391.64 784.64 391.52 785.05
  C 388.93 794.56 389.40 807.36 390.21 817.13
  C 390.56 821.24 391.81 825.27 392.73 829.41
  C 394.38 836.82 396.97 842.40 400.72 848.55
  Q 401.30 849.49 402.07 852.10
  Q 402.22 852.57 402.58 852.90
  C 404.98 855.14 404.35 857.97 405.05 860.29
  C 407.36 867.99 412.97 878.69 408.86 886.43"
/>
<path stroke="#ffdaa8" vector-effect="non-scaling-stroke" d="
  M 397.69 794.55
  Q 399.17 792.17 399.79 789.01"
/>
<path stroke="#facc90" vector-effect="non-scaling-stroke" d="
  M 399.79 789.01
  C 408.22 754.71 428.16 726.93 459.99 710.68
  C 510.67 684.80 576.04 681.56 592.10 614.20
  C 604.49 562.21 595.17 510.73 575.51 461.96
  C 564.80 435.38 552.00 409.87 539.72 384.02
  C 531.67 367.09 523.76 349.15 522.81 331.01
  Q 521.53 306.71 529.72 284.01
  C 532.76 275.57 538.76 263.85 542.82 253.54"
/>
<path stroke="#ffdaa8" vector-effect="non-scaling-stroke" d="
  M 542.82 253.54
  Q 544.82 251.07 544.45 247.60"
/>
<path stroke="#fac07b" vector-effect="non-scaling-stroke" d="
  M 542.82 253.54
  L 541.34 253.51
  A 0.79 0.78 13.6 0 0 540.62 253.94
  Q 527.72 279.02 521.30 306.52
  C 517.47 322.94 517.28 339.06 522.18 355.41
  C 528.30 375.87 536.96 395.25 545.44 414.81
  Q 559.37 446.96 568.76 480.74
  Q 585.19 539.81 572.91 599.92
  C 567.66 625.57 553.00 647.12 531.31 661.73
  C 511.07 675.37 487.71 684.85 465.82 695.58
  C 435.03 710.67 413.02 734.41 403.60 767.83
  Q 402.54 771.59 399.09 786.25
  C 398.91 786.98 398.61 789.39 399.79 789.01"
/>
<path stroke="#cc7355" vector-effect="non-scaling-stroke" d="
  M 392.95 775.37
  Q 393.24 774.54 394.35 773.88
  Q 394.84 773.59 394.86 774.16
  Q 395.20 784.42 397.69 794.55"
/>
<path stroke="#cc7f6a" vector-effect="non-scaling-stroke" d="
  M 397.69 794.55
  C 406.26 835.26 425.08 875.41 455.21 904.52
  C 474.48 923.14 501.83 937.59 528.94 938.94
  C 557.70 940.36 586.14 930.29 611.41 916.38
  C 670.20 884.01 720.78 832.25 762.06 780.05
  C 817.14 710.40 862.33 632.05 892.84 548.33
  C 924.35 461.83 947.53 336.91 874.38 262.54
  C 846.36 234.06 810.23 210.25 774.20 196.07
  Q 723.78 176.23 666.69 179.89
  C 616.40 183.12 579.79 206.86 547.83 243.87"
/>
<path stroke="#ffdaa8" vector-effect="non-scaling-stroke" d="
  M 514.44 248.93
  Q 513.43 251.97 513.75 256.24
  Q 514.06 260.57 514.57 275.24
  Q 515.45 300.63 501.58 321.61
  C 493.98 333.11 481.29 340.90 468.84 348.01
  C 442.98 362.79 416.01 377.69 391.95 393.68
  Q 365.71 411.12 341.74 433.97
  C 309.15 465.04 279.02 518.41 284.09 565.43
  C 291.23 631.52 357.48 663.28 378.43 723.07
  C 384.71 740.96 387.04 763.15 382.06 781.92
  Q 381.26 784.93 382.77 786.80"
/>
<path stroke="#b08760" vector-effect="non-scaling-stroke" d="
  M 17.57 490.20
  L 16.63 478.49"
/>
<path stroke="#fac07b" vector-effect="non-scaling-stroke" d="
  M 345.32 566.01
  C 351.58 573.72 360.31 580.19 370.23 581.21
  C 388.56 583.08 403.12 566.29 411.50 552.22
  C 430.98 519.51 439.64 479.06 440.31 441.39
  A 0.74 0.73 -3.3 0 0 439.47 440.65
  C 406.56 445.28 377.84 462.95 356.80 487.93
  C 349.47 496.64 343.78 507.41 339.75 517.77
  C 333.76 533.13 334.48 552.68 345.32 566.01"
/>
<path stroke="#fac07b" vector-effect="non-scaling-stroke" d="
  M 477.63 583.81
  C 478.30 596.05 484.20 612.81 496.83 617.67
  C 511.87 623.45 529.35 618.86 539.83 607.08
  C 559.85 584.59 557.99 547.13 549.89 520.53
  Q 538.72 483.84 513.11 454.63
  A 0.49 0.48 -51.9 0 0 512.32 454.73
  Q 499.57 478.67 491.02 504.46
  C 482.53 530.12 476.13 556.50 477.63 583.81"
/>
<path stroke="#ab6d33" vector-effect="non-scaling-stroke" d="
  M 346.74 540.81
  C 352.96 554.28 367.53 566.27 382.64 559.33
  C 396.17 553.11 406.52 537.01 412.84 523.32
  Q 428.33 489.77 433.27 452.98"
/>
<path stroke="#b67835" vector-effect="non-scaling-stroke" d="
  M 433.27 452.98
  L 433.99 447.29
  Q 434.06 446.70 433.47 446.74
  C 406.12 448.56 379.60 465.96 362.19 486.19
  C 349.90 500.46 339.15 521.78 346.74 540.81"
/>
<path stroke="#6c3206" vector-effect="non-scaling-stroke" d="
  M 433.27 452.98
  C 432.28 452.95 431.50 453.66 431.19 454.64
  C 424.38 475.89 412.95 495.76 401.91 513.67
  C 396.10 523.10 388.10 532.76 379.08 539.61
  C 372.50 544.60 361.20 550.69 353.18 544.41
  Q 350.35 542.19 346.74 540.81"
/>
<path stroke="#ab6d33" vector-effect="non-scaling-stroke" d="
  M 490.65 592.49
  Q 495.84 599.42 503.27 600.77
  C 527.42 605.16 538.97 583.08 541.49 562.98
  C 545.22 533.14 537.31 501.30 520.41 477.19"
/>
<path stroke="#b67835" vector-effect="non-scaling-stroke" d="
  M 520.41 477.19
  L 512.53 467.04
  Q 512.19 466.59 511.91 467.09
  C 497.02 493.52 485.18 524.93 482.07 555.23
  C 480.79 567.71 481.62 582.80 490.65 592.49"
/>
<path stroke="#6c3206" vector-effect="non-scaling-stroke" d="
  M 520.41 477.19
  C 518.86 479.00 521.04 481.07 521.62 482.42
  C 530.88 503.97 532.43 528.16 526.99 550.89
  C 523.25 566.55 517.59 574.90 507.54 587.91
  Q 507.23 588.31 506.75 588.43
  L 490.65 592.49"
/>
</g>
<path fill="#773d08" d="
  M 560.25 8.14
  Q 557.84 9.30 555.44 10.12
  C 549.34 12.22 543.62 15.69 537.79 18.44
  C 524.18 24.87 515.32 29.17 500.52 26.90
  Q 500.20 23.51 502.20 20.70
  C 510.80 8.61 529.66 2.87 544.08 2.11
  Q 556.05 1.48 560.25 8.14
  Z"
/>
<path fill="#612703" d="
  M 560.25 8.14
  C 567.86 22.17 570.84 38.52 572.13 53.76
  Q 576.82 109.14 567.29 164.09
  Q 561.75 194.63 553.19 224.69
  C 551.70 231.29 550.11 237.51 547.83 243.87
  L 544.45 247.60
  C 540.97 251.94 529.94 265.59 524.02 264.21
  C 519.45 263.14 515.69 252.93 514.44 248.93
  L 513.70 247.35
  Q 528.61 203.34 528.27 156.94
  Q 528.26 156.20 527.75 155.89
  Q 528.42 154.97 528.43 153.31
  C 528.70 117.72 524.15 82.32 512.05 49.27
  Q 508.10 38.50 500.52 26.90
  C 515.32 29.17 524.18 24.87 537.79 18.44
  C 543.62 15.69 549.34 12.22 555.44 10.12
  Q 557.84 9.30 560.25 8.14
  Z"
/>
<path fill="#ae1c1d" d="
  M 527.75 155.89
  Q 528.26 156.20 528.27 156.94
  Q 528.61 203.34 513.70 247.35
  Q 510.29 237.88 506.98 228.64
  C 494.75 194.49 473.29 162.84 444.87 140.30
  C 363.76 75.96 233.12 42.46 145.29 116.56
  C 83.38 168.79 42.88 244.71 26.36 324.08
  C 15.78 374.89 13.35 426.34 16.63 478.49
  C 16.39 480.84 15.20 490.94 17.57 490.20
  Q 26.16 584.33 58.78 672.99
  C 75.96 719.70 98.52 765.23 129.07 804.71
  C 147.10 828.01 170.14 850.79 200.06 857.22
  C 266.96 871.58 337.06 832.41 382.77 786.80
  L 392.95 775.37
  L 393.95 782.95
  Q 394.01 783.42 393.59 783.64
  L 392.01 784.44
  Q 391.64 784.64 391.52 785.05
  C 388.93 794.56 389.40 807.36 390.21 817.13
  C 390.56 821.24 391.81 825.27 392.73 829.41
  C 394.38 836.82 396.97 842.40 400.72 848.55
  Q 401.30 849.49 402.07 852.10
  Q 402.22 852.57 402.58 852.90
  C 404.98 855.14 404.35 857.97 405.05 860.29
  C 407.36 867.99 412.97 878.69 408.86 886.43
  C 397.54 878.82 385.51 874.37 372.11 873.99
  Q 368.85 873.90 364.75 873.28
  Q 356.39 872.00 337.93 871.96
  C 289.84 871.87 239.72 874.38 193.35 861.37
  Q 183.28 858.54 176.31 854.63
  C 163.50 847.45 151.33 836.38 141.85 826.40
  C 102.23 784.70 72.68 732.69 51.46 679.26
  C 21.80 604.57 6.41 524.93 3.37 444.75
  C 2.17 413.21 4.87 380.91 9.71 349.74
  Q 9.77 349.36 10.78 346.42
  C 11.28 344.95 10.89 342.99 11.15 341.54
  Q 16.32 312.18 25.27 283.75
  Q 25.39 283.38 26.53 280.87
  C 27.12 279.59 27.22 278.02 27.63 276.77
  C 44.78 224.65 73.60 174.68 112.25 135.65
  C 134.50 113.17 158.42 94.25 186.55 80.06
  C 203.89 71.32 221.91 68.43 243.76 66.03
  C 307.22 59.07 363.29 76.81 419.28 104.19
  C 455.25 121.78 489.81 139.67 527.75 155.89
  Z"
/>
<path fill="#ffe6bd" d="
  M 513.70 247.35
  L 514.44 248.93
  Q 513.43 251.97 513.75 256.24
  Q 514.06 260.57 514.57 275.24
  Q 515.45 300.63 501.58 321.61
  C 493.98 333.11 481.29 340.90 468.84 348.01
  C 442.98 362.79 416.01 377.69 391.95 393.68
  Q 365.71 411.12 341.74 433.97
  C 309.15 465.04 279.02 518.41 284.09 565.43
  C 291.23 631.52 357.48 663.28 378.43 723.07
  C 384.71 740.96 387.04 763.15 382.06 781.92
  Q 381.26 784.93 382.77 786.80
  C 337.06 832.41 266.96 871.58 200.06 857.22
  C 170.14 850.79 147.10 828.01 129.07 804.71
  C 98.52 765.23 75.96 719.70 58.78 672.99
  Q 26.16 584.33 17.57 490.20
  L 16.63 478.49
  C 13.35 426.34 15.78 374.89 26.36 324.08
  C 42.88 244.71 83.38 168.79 145.29 116.56
  C 233.12 42.46 363.76 75.96 444.87 140.30
  C 473.29 162.84 494.75 194.49 506.98 228.64
  Q 510.29 237.88 513.70 247.35
  Z"
/>
<path fill="#ae1c1d" d="
  M 855.75 187.28
  Q 855.97 188.26 855.37 188.68
  A 0.90 0.88 -50.0 0 1 854.47 188.77
  Q 850.88 187.10 847.25 185.58
  C 842.20 183.45 837.61 183.39 832.89 180.12
  Q 829.82 177.99 826.25 176.79
  C 807.64 170.53 788.10 165.24 768.59 162.94
  Q 737.05 159.23 705.38 161.57
  C 693.72 162.42 680.27 164.55 667.75 166.25
  C 657.20 167.68 644.39 172.42 633.00 175.32
  C 619.86 178.66 610.00 183.99 598.81 189.57
  Q 596.55 190.70 594.03 192.95
  C 589.84 196.69 584.81 198.66 580.67 201.67
  C 577.99 203.62 574.85 205.37 572.83 208.02
  Q 571.92 209.22 570.76 210.06
  C 565.36 214.01 558.58 219.28 555.12 225.32
  A 0.87 0.86 -75.0 0 1 554.37 225.76
  Q 553.53 225.76 553.19 224.69
  Q 561.75 194.63 567.29 164.09
  C 665.87 156.14 765.43 133.50 855.75 187.28
  Z"
/>
<path fill="#981817" d="
  M 855.75 187.28
  C 952.92 241.98 999.01 336.94 1006.42 445.47
  Q 1007.09 455.31 1006.44 465.43
  C 995.81 632.10 900.84 782.67 766.43 878.01
  C 716.65 913.31 655.98 942.98 594.66 949.76
  C 571.78 952.28 548.10 950.62 525.50 946.41
  Q 479.03 937.75 441.09 909.65
  Q 424.89 897.65 408.86 886.43
  C 412.97 878.69 407.36 867.99 405.05 860.29
  C 404.35 857.97 404.98 855.14 402.58 852.90
  Q 402.22 852.57 402.07 852.10
  Q 401.30 849.49 400.72 848.55
  C 396.97 842.40 394.38 836.82 392.73 829.41
  C 391.81 825.27 390.56 821.24 390.21 817.13
  C 389.40 807.36 388.93 794.56 391.52 785.05
  Q 391.64 784.64 392.01 784.44
  L 393.59 783.64
  Q 394.01 783.42 393.95 782.95
  L 392.95 775.37
  Q 393.24 774.54 394.35 773.88
  Q 394.84 773.59 394.86 774.16
  Q 395.20 784.42 397.69 794.55
  C 406.26 835.26 425.08 875.41 455.21 904.52
  C 474.48 923.14 501.83 937.59 528.94 938.94
  C 557.70 940.36 586.14 930.29 611.41 916.38
  C 670.20 884.01 720.78 832.25 762.06 780.05
  C 817.14 710.40 862.33 632.05 892.84 548.33
  C 924.35 461.83 947.53 336.91 874.38 262.54
  C 846.36 234.06 810.23 210.25 774.20 196.07
  Q 723.78 176.23 666.69 179.89
  C 616.40 183.12 579.79 206.86 547.83 243.87
  C 550.11 237.51 551.70 231.29 553.19 224.69
  Q 553.53 225.76 554.37 225.76
  A 0.87 0.86 -75.0 0 0 555.12 225.32
  C 558.58 219.28 565.36 214.01 570.76 210.06
  Q 571.92 209.22 572.83 208.02
  C 574.85 205.37 577.99 203.62 580.67 201.67
  C 584.81 198.66 589.84 196.69 594.03 192.95
  Q 596.55 190.70 598.81 189.57
  C 610.00 183.99 619.86 178.66 633.00 175.32
  C 644.39 172.42 657.20 167.68 667.75 166.25
  C 680.27 164.55 693.72 162.42 705.38 161.57
  Q 737.05 159.23 768.59 162.94
  C 788.10 165.24 807.64 170.53 826.25 176.79
  Q 829.82 177.99 832.89 180.12
  C 837.61 183.39 842.20 183.45 847.25 185.58
  Q 850.88 187.10 854.47 188.77
  A 0.90 0.88 -50.0 0 0 855.37 188.68
  Q 855.97 188.26 855.75 187.28
  Z"
/>
<path fill="#ffe6bd" d="
  M 397.69 794.55
  Q 399.17 792.17 399.79 789.01
  C 408.22 754.71 428.16 726.93 459.99 710.68
  C 510.67 684.80 576.04 681.56 592.10 614.20
  C 604.49 562.21 595.17 510.73 575.51 461.96
  C 564.80 435.38 552.00 409.87 539.72 384.02
  C 531.67 367.09 523.76 349.15 522.81 331.01
  Q 521.53 306.71 529.72 284.01
  C 532.76 275.57 538.76 263.85 542.82 253.54
  Q 544.82 251.07 544.45 247.60
  L 547.83 243.87
  C 579.79 206.86 616.40 183.12 666.69 179.89
  Q 723.78 176.23 774.20 196.07
  C 810.23 210.25 846.36 234.06 874.38 262.54
  C 947.53 336.91 924.35 461.83 892.84 548.33
  C 862.33 632.05 817.14 710.40 762.06 780.05
  C 720.78 832.25 670.20 884.01 611.41 916.38
  C 586.14 930.29 557.70 940.36 528.94 938.94
  C 501.83 937.59 474.48 923.14 455.21 904.52
  C 425.08 875.41 406.26 835.26 397.69 794.55
  Z"
/>
<path fill="#ffce93" d="
  M 544.45 247.60
  Q 544.82 251.07 542.82 253.54
  L 541.34 253.51
  A 0.79 0.78 13.6 0 0 540.62 253.94
  Q 527.72 279.02 521.30 306.52
  C 517.47 322.94 517.28 339.06 522.18 355.41
  C 528.30 375.87 536.96 395.25 545.44 414.81
  Q 559.37 446.96 568.76 480.74
  Q 585.19 539.81 572.91 599.92
  C 567.66 625.57 553.00 647.12 531.31 661.73
  C 511.07 675.37 487.71 684.85 465.82 695.58
  C 435.03 710.67 413.02 734.41 403.60 767.83
  Q 402.54 771.59 399.09 786.25
  C 398.91 786.98 398.61 789.39 399.79 789.01
  Q 399.17 792.17 397.69 794.55
  Q 395.20 784.42 394.86 774.16
  Q 394.84 773.59 394.35 773.88
  Q 393.24 774.54 392.95 775.37
  L 382.77 786.80
  Q 381.26 784.93 382.06 781.92
  C 387.04 763.15 384.71 740.96 378.43 723.07
  C 357.48 663.28 291.23 631.52 284.09 565.43
  C 279.02 518.41 309.15 465.04 341.74 433.97
  Q 365.71 411.12 391.95 393.68
  C 416.01 377.69 442.98 362.79 468.84 348.01
  C 481.29 340.90 493.98 333.11 501.58 321.61
  Q 515.45 300.63 514.57 275.24
  Q 514.06 260.57 513.75 256.24
  Q 513.43 251.97 514.44 248.93
  C 515.69 252.93 519.45 263.14 524.02 264.21
  C 529.94 265.59 540.97 251.94 544.45 247.60
  Z
  M 345.32 566.01
  C 351.58 573.72 360.31 580.19 370.23 581.21
  C 388.56 583.08 403.12 566.29 411.50 552.22
  C 430.98 519.51 439.64 479.06 440.31 441.39
  A 0.74 0.73 -3.3 0 0 439.47 440.65
  C 406.56 445.28 377.84 462.95 356.80 487.93
  C 349.47 496.64 343.78 507.41 339.75 517.77
  C 333.76 533.13 334.48 552.68 345.32 566.01
  Z
  M 477.63 583.81
  C 478.30 596.05 484.20 612.81 496.83 617.67
  C 511.87 623.45 529.35 618.86 539.83 607.08
  C 559.85 584.59 557.99 547.13 549.89 520.53
  Q 538.72 483.84 513.11 454.63
  A 0.49 0.48 -51.9 0 0 512.32 454.73
  Q 499.57 478.67 491.02 504.46
  C 482.53 530.12 476.13 556.50 477.63 583.81
  Z"
/>
<path fill="#f5b262" d="
  M 542.82 253.54
  C 538.76 263.85 532.76 275.57 529.72 284.01
  Q 521.53 306.71 522.81 331.01
  C 523.76 349.15 531.67 367.09 539.72 384.02
  C 552.00 409.87 564.80 435.38 575.51 461.96
  C 595.17 510.73 604.49 562.21 592.10 614.20
  C 576.04 681.56 510.67 684.80 459.99 710.68
  C 428.16 726.93 408.22 754.71 399.79 789.01
  C 398.61 789.39 398.91 786.98 399.09 786.25
  Q 402.54 771.59 403.60 767.83
  C 413.02 734.41 435.03 710.67 465.82 695.58
  C 487.71 684.85 511.07 675.37 531.31 661.73
  C 553.00 647.12 567.66 625.57 572.91 599.92
  Q 585.19 539.81 568.76 480.74
  Q 559.37 446.96 545.44 414.81
  C 536.96 395.25 528.30 375.87 522.18 355.41
  C 517.28 339.06 517.47 322.94 521.30 306.52
  Q 527.72 279.02 540.62 253.94
  A 0.79 0.78 13.6 0 1 541.34 253.51
  L 542.82 253.54
  Z"
/>
<path fill="#f5b262" d="
  M 345.32 566.01
  C 334.48 552.68 333.76 533.13 339.75 517.77
  C 343.78 507.41 349.47 496.64 356.80 487.93
  C 377.84 462.95 406.56 445.28 439.47 440.65
  A 0.74 0.73 -3.3 0 1 440.31 441.39
  C 439.64 479.06 430.98 519.51 411.50 552.22
  C 403.12 566.29 388.56 583.08 370.23 581.21
  C 360.31 580.19 351.58 573.72 345.32 566.01
  Z
  M 346.74 540.81
  C 352.96 554.28 367.53 566.27 382.64 559.33
  C 396.17 553.11 406.52 537.01 412.84 523.32
  Q 428.33 489.77 433.27 452.98
  L 433.99 447.29
  Q 434.06 446.70 433.47 446.74
  C 406.12 448.56 379.60 465.96 362.19 486.19
  C 349.90 500.46 339.15 521.78 346.74 540.81
  Z"
/>
<path fill="#773d08" d="
  M 433.27 452.98
  C 432.28 452.95 431.50 453.66 431.19 454.64
  C 424.38 475.89 412.95 495.76 401.91 513.67
  C 396.10 523.10 388.10 532.76 379.08 539.61
  C 372.50 544.60 361.20 550.69 353.18 544.41
  Q 350.35 542.19 346.74 540.81
  C 339.15 521.78 349.90 500.46 362.19 486.19
  C 379.60 465.96 406.12 448.56 433.47 446.74
  Q 434.06 446.70 433.99 447.29
  L 433.27 452.98
  Z"
/>
<path fill="#612703" d="
  M 433.27 452.98
  Q 428.33 489.77 412.84 523.32
  C 406.52 537.01 396.17 553.11 382.64 559.33
  C 367.53 566.27 352.96 554.28 346.74 540.81
  Q 350.35 542.19 353.18 544.41
  C 361.20 550.69 372.50 544.60 379.08 539.61
  C 388.10 532.76 396.10 523.10 401.91 513.67
  C 412.95 495.76 424.38 475.89 431.19 454.64
  C 431.50 453.66 432.28 452.95 433.27 452.98
  Z"
/>
<path fill="#f5b262" d="
  M 496.83 617.67
  C 484.20 612.81 478.30 596.05 477.63 583.81
  C 476.13 556.50 482.53 530.12 491.02 504.46
  Q 499.57 478.67 512.32 454.73
  A 0.49 0.48 -51.9 0 1 513.11 454.63
  Q 538.72 483.84 549.89 520.53
  C 557.99 547.13 559.85 584.59 539.83 607.08
  C 529.35 618.86 511.87 623.45 496.83 617.67
  Z
  M 490.65 592.49
  Q 495.84 599.42 503.27 600.77
  C 527.42 605.16 538.97 583.08 541.49 562.98
  C 545.22 533.14 537.31 501.30 520.41 477.19
  L 512.53 467.04
  Q 512.19 466.59 511.91 467.09
  C 497.02 493.52 485.18 524.93 482.07 555.23
  C 480.79 567.71 481.62 582.80 490.65 592.49
  Z"
/>
<path fill="#773d08" d="
  M 520.41 477.19
  C 518.86 479.00 521.04 481.07 521.62 482.42
  C 530.88 503.97 532.43 528.16 526.99 550.89
  C 523.25 566.55 517.59 574.90 507.54 587.91
  Q 507.23 588.31 506.75 588.43
  L 490.65 592.49
  C 481.62 582.80 480.79 567.71 482.07 555.23
  C 485.18 524.93 497.02 493.52 511.91 467.09
  Q 512.19 466.59 512.53 467.04
  L 520.41 477.19
  Z"
/>
<path fill="#612703" d="
  M 520.41 477.19
  C 537.31 501.30 545.22 533.14 541.49 562.98
  C 538.97 583.08 527.42 605.16 503.27 600.77
  Q 495.84 599.42 490.65 592.49
  L 506.75 588.43
  Q 507.23 588.31 507.54 587.91
  C 517.59 574.90 523.25 566.55 526.99 550.89
  C 532.43 528.16 530.88 503.97 521.62 482.42
  C 521.04 481.07 518.86 479.00 520.41 477.19
  Z"
/>
<path fill="#612703" d="
  M 16.63 478.49
  L 17.57 490.20
  C 15.20 490.94 16.39 480.84 16.63 478.49
  Z"
/>
</svg>
